<svg id="2a818e40-8408-46a3-bdd9-31e8eb9c1f22" data-name="Слой 6" xmlns="http://www.w3.org/2000/svg" viewBox="0 0 244.36 252.47"><title>authorization-error</title><path d="M165.36,45.35,118.44,236.82c79.4-8.91,112.09-76.75,125.18-134.37C217.79,69.82,176.81,50.21,165.36,45.35Z" transform="translate(-31.27 -14.98)" style="fill:#534741"/><path d="M275.63,95.95C240.68,41.94,172.54,16,172.54,16S100.14,7.51,44.19,39.24c-2.37,9.67-53.84,157,66.76,228.21C250.48,259.95,273.26,105.62,275.63,95.95ZM115.92,247.14c-79.2-50.5-69.32-141-54.92-194.21C103.8,31.64,156,34.53,167.73,35.68c10.81,4.7,58.48,26.29,86.67,64.63C242.58,154.14,209.49,239,115.92,247.14Z" transform="translate(-31.27 -14.98)" style="fill:#534741"/></svg>