<svg id="94b56ea4-ea58-4028-a1bb-c0978695f3eb" data-name="Oops" xmlns="http://www.w3.org/2000/svg" viewBox="0 0 255.39 230.51"><title>oops-error</title><line x1="70.98" y1="161.25" x2="84.9" y2="161.25" style="fill:none;stroke:#534741;stroke-linecap:round;stroke-miterlimit:10;stroke-width:4px"/><circle cx="173.85" cy="155.82" r="24.59" style="fill:#ffd5af"/><path d="M89.19,278.06c-3.9-6.73-11.4-20.81-13.92-35.51-.81-4.72-1.08-9.31.91-14a20.27,20.27,0,0,1,8.32-9.76c10.73-6.74,20.5-15.95,38-16.27,5-.09,7.83.69,13.38,4a29.86,29.86,0,0,1,9.4,9c11.18,16.2,13.63,42.11,15.91,41.95,1.49-.11-.65-11.06,6.15-18.8,3.27-3.72,9.37-7.58,14.46-5.79,5.7,2,7.21,10.09,8,14.1,2.68,14.37-4.39,27-8.32,32.91" transform="translate(-8.81 -51.37)" style="fill:none;stroke:#534741;stroke-linecap:round;stroke-miterlimit:10;stroke-width:4px"/><circle cx="60.02" cy="77" r="32.55" style="fill:none;stroke:#534741;stroke-linecap:round;stroke-miterlimit:10;stroke-width:4px"/><circle cx="60.02" cy="77" r="13.13" style="fill:#534741"/><circle cx="134.52" cy="77" r="32.55" style="fill:none;stroke:#534741;stroke-linecap:round;stroke-miterlimit:10;stroke-width:4px"/><circle cx="134.52" cy="77" r="13.13" style="fill:#534741"/><line x1="54.71" y1="18.77" x2="3" y2="65.42" style="fill:none;stroke:#534741;stroke-linecap:round;stroke-miterlimit:10;stroke-width:6px"/><path d="M118.84,54.37S128.61,64.49,146,71.72s38.33,6.15,38.33,6.15" transform="translate(-8.81 -51.37)" style="fill:none;stroke:#534741;stroke-linecap:round;stroke-miterlimit:10;stroke-width:6px"/><path d="M138.73,197.06s3.62-2.53,6.51,0a4.44,4.44,0,0,1,1.45,5.33" transform="translate(-8.81 -51.37)" style="fill:none;stroke:#534741;stroke-linecap:round;stroke-miterlimit:10;stroke-width:4px"/><circle cx="31.93" cy="155.82" r="24.59" style="fill:#ffd5af"/><path d="M185.89,102h16q8.42,0,13.53,4.73a16.18,16.18,0,0,1,5.1,12.46q0,8.16-5.17,12.78T201,136.6h-2.21v21.25H185.89Zm12.89,10.71V125.9q4.34-.08,6.4-1.63a5.72,5.72,0,0,0,2.06-4.89q0-3.6-2-5.08T198.78,112.72Z" transform="translate(-8.81 -51.37)" style="fill:none;stroke:#534741;stroke-linejoin:round;stroke-width:4px"/><path d="M233.27,156.8v-13q6.13,3.51,10.29,3.51a5.37,5.37,0,0,0,3.83-1.32,4.56,4.56,0,0,0,1.4-3.49,5.05,5.05,0,0,0-1.13-3.14,21.26,21.26,0,0,0-3.89-3.55,43.6,43.6,0,0,1-9.68-9.35,16.54,16.54,0,0,1-3-9.64A15.81,15.81,0,0,1,235.74,105a16.38,16.38,0,0,1,12-4.56,27.19,27.19,0,0,1,10.81,2.3v12.51q-5.74-3.09-9.32-3.09a5.71,5.71,0,0,0-3.76,1.15,3.89,3.89,0,0,0-1.38,3.16q0,3.51,6.42,7.9a38.73,38.73,0,0,1,7.76,7.3,16.48,16.48,0,0,1,3.93,10.9,15.6,15.6,0,0,1-5.15,12A18.51,18.51,0,0,1,244,159.31,24.91,24.91,0,0,1,233.27,156.8Z" transform="translate(-8.81 -51.37)" style="fill:none;stroke:#534741;stroke-linejoin:round;stroke-width:4px"/></svg>