<svg xmlns="http://www.w3.org/2000/svg" viewBox="0 0 943.96 226.86"><title>bugwall-logo.png</title><g id="af320385-1293-4234-8cf8-ce2c3fa70623" data-name="иконка"><path d="M359.65,42.08h38.13q18.07,0,27.38,2.28a27.27,27.27,0,0,1,15,9.25q5.72,7,5.72,22.43,0,10.46-4,14.59T425.93,97q13.26,2.43,18,8.08t4.72,17.3V133.4q0,12.1-3.41,17.92t-10.85,8q-7.45,2.14-30.51,2.14H359.65ZM397.87,62.5V89q2.45-.07,3.81-.07,5.63,0,7.17-2.25t1.54-12.86q0-5.6-1.27-7.85a5.61,5.61,0,0,0-3.31-2.84A36.06,36.06,0,0,0,397.87,62.5Zm0,45.12V141q8.08-.22,10.31-2.06t2.22-9.07V118.75q0-7.67-2-9.29T397.87,107.61Z" transform="translate(-98.85 -39.57)" style="fill:#22b573"/><path d="M549.23,42.08v79.77q0,13.57-1.09,19.06t-6.45,11.28A33.55,33.55,0,0,1,527.58,161a64.18,64.18,0,0,1-20.66,3,70,70,0,0,1-23.24-3.54q-10.08-3.54-15.07-9.21a23.06,23.06,0,0,1-5.9-12q-.91-6.3-.91-26.5V42.08H500v89.5q0,7.81,1,10t4.22,2.17q3.63,0,4.68-2.4T511,130V42.08Z" transform="translate(-98.85 -39.57)" style="fill:#22b573"/><path d="M651.74,86H613.51V75.18q0-10.25-1.09-12.83t-5.18-2.58q-3.54,0-4.81,2.21t-1.27,11.35v57.28q0,8,1.27,10.58t5.08,2.54q4.17,0,5.67-2.87t1.5-11.21V115.5H607V97.37h44.76v64.06h-24l-3.54-8.55a24.61,24.61,0,0,1-9.86,8.29,33.06,33.06,0,0,1-14,2.76,43.31,43.31,0,0,1-18-3.8q-8.41-3.8-12.77-9.4A26.6,26.6,0,0,1,564,139a115,115,0,0,1-1.09-18.47V85.06q0-17.1,2.27-24.84t13-14.19q10.76-6.45,27.83-6.45,16.8,0,27.88,5.6t14.44,13.31q3.36,7.7,3.36,22.37Z" transform="translate(-98.85 -39.57)" style="fill:#22b573"/><path d="M810.46,42.08l-17,119.35H745.71q-6.55-27.51-11.57-62.59-2.29,15-10.66,62.59H676L658.91,42.08h37.14l4,41.64L704,124q2.12-31.25,10.57-81.9h39.69q.79,5.24,4.17,39.37l4.22,45.41a839.21,839.21,0,0,1,10.67-84.78Z" transform="translate(-98.85 -39.57)" style="fill:#22b573"/><path d="M882.25,42.08l21.86,119.35H865L863,140H849.32L847,161.43H807.5L827,42.08ZM862,118.82q-2.9-20.28-5.82-50.13-5.84,34.28-7.34,50.13Z" transform="translate(-98.85 -39.57)" style="fill:#22b573"/><path d="M948.83,42.08v95.47h23.24v23.89H910.6V42.08Z" transform="translate(-98.85 -39.57)" style="fill:#22b573"/><path d="M1019.56,42.08v95.47h23.24v23.89H981.34V42.08Z" transform="translate(-98.85 -39.57)" style="fill:#22b573"/></g><g id="efe9b242-be01-4aa1-9b1f-7b1f963c7ae8" data-name="элементы_рис"><rect y="1.13" width="225.74" height="225.74" rx="22.13" ry="22.13" style="fill:#f4b266"/><rect x="25.5" y="26.63" width="174.73" height="174.73" rx="12" ry="12" style="fill:#fff"/><rect x="33.4" y="34.53" width="159.81" height="36.65" rx="6.08" ry="6.08" style="fill:#22b573"/><rect x="33.4" y="81.05" width="41.15" height="19.18" rx="4.75" ry="4.75" style="fill:#0071bc"/><rect x="33.4" y="112.27" width="41.15" height="19.18" rx="4.75" ry="4.75" style="fill:#0071bc"/><rect x="33.4" y="143.49" width="41.15" height="19.18" rx="4.75" ry="4.75" style="fill:#0071bc"/><rect x="33.4" y="174.71" width="41.15" height="19.18" rx="4.75" ry="4.75" style="fill:#0071bc"/><rect x="141.82" y="82.39" width="20.07" height="20.07" rx="4.82" ry="4.82" transform="translate(-119.72 94.88) rotate(-45)" style="fill:#009245"/><rect x="80.39" y="81.05" width="112.92" height="112.92" rx="7.6" ry="7.6" style="fill:#e6e6e6"/><line x1="90.38" y1="184.3" x2="101.76" y2="172.92" style="fill:none;stroke:#39b54a;stroke-miterlimit:10;stroke-width:12px"/><polygon points="112.23 192.06 123.07 151.61 82.62 162.44 112.23 192.06" style="fill:#39b54a"/><circle cx="149.27" cy="124.81" r="31.06" style="fill:none;stroke:#39b54a;stroke-miterlimit:10;stroke-width:20px"/></g></svg>