<svg xmlns="http://www.w3.org/2000/svg" viewBox="0 0 283.46 283.46"><title>logo-icon</title><g id="aa2369a7-da85-4bcd-9efc-54a44ab7ce97" data-name="иконка"><rect width="283.46" height="283.46" rx="22.13" ry="22.13" style="fill:#f4b266"/><rect x="32.02" y="32.02" width="219.41" height="219.41" rx="12" ry="12" style="fill:#fff"/><rect x="41.95" y="41.95" width="200.68" height="46.02" rx="6.08" ry="6.08" style="fill:#22b573"/><rect x="41.95" y="100.37" width="51.67" height="24.08" rx="4.75" ry="4.75" style="fill:#0071bc"/><rect x="41.95" y="139.57" width="51.67" height="24.08" rx="4.75" ry="4.75" style="fill:#0071bc"/><rect x="41.95" y="178.77" width="51.67" height="24.08" rx="4.75" ry="4.75" style="fill:#0071bc"/><rect x="41.95" y="217.97" width="51.67" height="24.08" rx="4.75" ry="4.75" style="fill:#0071bc"/><rect x="53.96" y="52.35" width="25.21" height="25.21" rx="4.82" ry="4.82" transform="translate(-26.44 66.09) rotate(-45)" style="fill:#009245"/><rect x="100.95" y="100.37" width="141.8" height="141.8" rx="7.6" ry="7.6" style="fill:#e6e6e6"/></g><g id="4b5638d4-3077-4d64-983d-93bd818144c5" data-name="элементы_рис"><line x1="113.49" y1="230.01" x2="133.23" y2="210.27" style="fill:none;stroke:#39b54a;stroke-miterlimit:10;stroke-width:12px"/><polygon points="143.7 229.41 154.54 188.96 114.09 199.8 143.7 229.41" style="fill:#39b54a"/><circle cx="187.44" cy="155.31" r="39.01" style="fill:none;stroke:#39b54a;stroke-miterlimit:10;stroke-width:20px"/></g></svg>